<?xml version="1.0" ?><!DOCTYPE svg  PUBLIC '-//W3C//DTD SVG 1.1//EN'  'http://www.w3.org/Graphics/SVG/1.1/DTD/svg11.dtd'><svg enable-background="new 0 0 50 50" height="50px" id="Layer_1" version="1.1" viewBox="0 0 50 50" width="50px" xml:space="preserve" xmlns="http://www.w3.org/2000/svg" xmlns:xlink="http://www.w3.org/1999/xlink"><g><g><path d="M50,45.233C50,47.866,47.866,50,45.233,50H4.767C2.134,50,0,47.866,0,45.233V4.767     C0,2.134,2.134,0,4.767,0h40.466C47.866,0,50,2.134,50,4.767V45.233z" fill="#2899C0"/><g><path d="M47.711,49.306L25.155,26.75l-2.665-1.193l-2.828,4.338l-6.936,7.524l12.574,12.574L25.346,50h19.887      C46.141,50,46.989,49.746,47.711,49.306z" opacity="0.2"/><path d="M50,25.325l-0.008-0.036l-12.59-12.59L26.75,25.155l22.559,22.553C49.747,46.986,50,46.139,50,45.233      V25.325z" opacity="0.2"/></g><g><g><path d="M12.532,36.733c-0.139,0.544,0.191,0.874,0.735,0.735l3.698-0.948c0.544-0.139,1.43-0.377,1.971-0.528       l3.676-1.028c0.54-0.151,0.661-0.603,0.269-1.004l-2.67-2.728c-0.392-0.401-1.042-1.05-1.443-1.443l-2.728-2.67       c-0.401-0.392-0.853-0.271-1.004,0.269l-1.028,3.676c-0.151,0.54-0.389,1.427-0.528,1.971L12.532,36.733z" fill="#FFFFFF"/><path d="M25.155,27.442c0.191-0.191,0.191-0.501,0-0.693l-1.904-1.904c-0.191-0.191-0.501-0.191-0.693,0       l-5.973,5.973c-0.191,0.191-0.191,0.501,0,0.693l1.904,1.904c0.191,0.191,0.501,0.191,0.693,0L25.155,27.442z" fill="#FFFFFF"/></g><g><path d="M37.468,13.267c0.139-0.544-0.191-0.874-0.735-0.735l-3.698,0.948c-0.544,0.139-1.43,0.377-1.971,0.528       l-3.676,1.028c-0.54,0.151-0.661,0.603-0.269,1.004l2.67,2.728c0.392,0.401,1.042,1.05,1.443,1.443l2.728,2.67       c0.401,0.392,0.853,0.271,1.004-0.269l1.028-3.676c0.151-0.54,0.389-1.427,0.528-1.971L37.468,13.267z" fill="#FFFFFF"/><path d="M24.845,22.558c-0.191,0.191-0.191,0.501,0,0.693l1.904,1.904c0.191,0.191,0.501,0.191,0.693,0       l5.973-5.973c0.191-0.191,0.191-0.501,0-0.693l-1.904-1.904c-0.191-0.191-0.501-0.191-0.693,0L24.845,22.558z" fill="#FFFFFF"/></g></g></g></g></svg>