<?xml version="1.0" ?><!DOCTYPE svg  PUBLIC '-//W3C//DTD SVG 1.1//EN'  'http://www.w3.org/Graphics/SVG/1.1/DTD/svg11.dtd'><svg enable-background="new 0 0 50 50" height="50px" id="Layer_1" version="1.1" viewBox="0 0 50 50" width="50px" xml:space="preserve" xmlns="http://www.w3.org/2000/svg" xmlns:xlink="http://www.w3.org/1999/xlink"><g><g><path d="M50,45.233C50,47.866,47.866,50,45.233,50H4.767C2.134,50,0,47.866,0,45.233V4.767     C0,2.134,2.134,0,4.767,0h40.466C47.866,0,50,2.134,50,4.767V45.233z" fill="#2899C0"/><path d="M50,35.001L33.223,18.223l-2.587,6.289l-13.858,7.121L35.144,50h10.089C47.866,50,50,47.866,50,45.233     V35.001z" opacity="0.2"/><g><path d="M33.411,31.355c0,0.419-0.5,0.759-1.117,0.759H30.1c-0.617,0-1.117-0.34-1.117-0.759v-12.71      c0-0.419,0.5-0.759,1.117-0.759h2.194c0.617,0,1.117,0.34,1.117,0.759V31.355z" fill="#FFFFFF"/><path d="M28.843,24.143l-9.759-5.839c-1.707-1.094-2.495,0.306-2.495,0.306V25v6.389c0,0,0.788,1.4,2.495,0.306      l9.759-5.839c0,0,0.361-0.217,0.361-0.857C29.204,24.36,28.843,24.143,28.843,24.143z" fill="#FFFFFF"/></g></g></g></svg>