<?xml version="1.0" encoding="UTF-8" standalone="no"?>
<!-- Created with Inkscape (http://www.inkscape.org/) -->

<svg
   xmlns:dc="http://purl.org/dc/elements/1.1/"
   xmlns:cc="http://creativecommons.org/ns#"
   xmlns:rdf="http://www.w3.org/1999/02/22-rdf-syntax-ns#"
   xmlns:svg="http://www.w3.org/2000/svg"
   xmlns="http://www.w3.org/2000/svg"
   xmlns:sodipodi="http://sodipodi.sourceforge.net/DTD/sodipodi-0.dtd"
   xmlns:inkscape="http://www.inkscape.org/namespaces/inkscape"
   width="131.07167mm"
   height="33.745235mm"
   viewBox="0 0 131.07167 33.745235"
   version="1.1"
   id="svg8"
   inkscape:version="0.92.3 (2405546, 2018-03-11)"
   sodipodi:docname="logo.svg"
   inkscape:export-filename="/home/martiansoup/lgoo.svg.png"
   inkscape:export-xdpi="96"
   inkscape:export-ydpi="96">
  <defs
     id="defs2" />
  <sodipodi:namedview
     id="base"
     pagecolor="#ffffff"
     bordercolor="#666666"
     borderopacity="1.0"
     inkscape:pageopacity="0.0"
     inkscape:pageshadow="2"
     inkscape:zoom="1.42"
     inkscape:cx="263.54119"
     inkscape:cy="100.61423"
     inkscape:document-units="mm"
     inkscape:current-layer="layer1"
     showgrid="false"
     fit-margin-top="0"
     fit-margin-left="0"
     fit-margin-right="0"
     fit-margin-bottom="0"
     inkscape:window-width="1366"
     inkscape:window-height="713"
     inkscape:window-x="0"
     inkscape:window-y="0"
     inkscape:window-maximized="1" />
  <metadata
     id="metadata5">
    <rdf:RDF>
      <cc:Work
         rdf:about="">
        <dc:format>image/svg+xml</dc:format>
        <dc:type
           rdf:resource="http://purl.org/dc/dcmitype/StillImage" />
        <dc:title></dc:title>
      </cc:Work>
    </rdf:RDF>
  </metadata>
  <g
     inkscape:label="Layer 1"
     inkscape:groupmode="layer"
     id="layer1"
     transform="translate(-9.3705458,-119.44603)">
    <rect
       style="fill:#000000;stroke-width:0.26458332"
       id="rect3756"
       width="15.837734"
       height="17.700996"
       x="11.274036"
       y="122.72771" />
    <g
       id="g3758"
       transform="matrix(0.92968965,0,0,0.92968965,-29.494177,13.145909)">
      <rect
         y="124.4973"
         x="48.964806"
         height="14.552083"
         width="10.583333"
         id="rect3749"
         style="fill:#ffffff;stroke-width:0.2452753" />
      <circle
         r="5.2916665"
         style="fill:#ffffff;stroke-width:0.23007245"
         cy="125.02084"
         cx="54.239586"
         id="path3747" />
      <circle
         style="fill:#000000;stroke-width:0.26458332"
         r="2.5135417"
         cy="124.62396"
         cx="54.371872"
         id="path3721" />
    </g>
    <path
       sodipodi:type="star"
       id="path3745"
       sodipodi:sides="3"
       sodipodi:cx="32.103069"
       sodipodi:cy="134.64588"
       sodipodi:r1="3.175"
       sodipodi:r2="1.5875"
       sodipodi:arg1="0"
       sodipodi:arg2="1.0471976"
       inkscape:flatsided="false"
       inkscape:rounded="0"
       inkscape:randomized="0"
       d="m 35.278069,134.64587 -2.38125,1.37482 -2.38125,1.37481 0,-2.74963 0,-2.74963 2.38125,1.37482 z"
       inkscape:transform-center-x="-0.79374982"
       inkscape:transform-center-y="-1.3017323e-06"
       style="stroke-width:0.26458332" />
    <path
       inkscape:connector-curvature="0"
       id="path3809"
       d="m 9.3705458,119.7592 v 33.43206 h 4.7542322 v -8.53178 h 5.978446 c 3.938432,0 6.911942,-1.05064 8.920386,-3.15122 2.024134,-2.10058 3.03599,-5.20492 3.03599,-9.31313 0,-4.07104 -1.011856,-7.15674 -3.03599,-9.25732 -2.008444,-2.11916 -4.981954,-3.17861 -8.920386,-3.17861 z m 4.7542322,4.62865 h 5.978446 c 2.212426,0 3.922748,0.67853 5.130953,2.03554 1.208204,1.35701 1.812292,3.28079 1.812292,5.77174 0,2.50954 -0.604088,4.44316 -1.812292,5.80016 -1.208205,1.35701 -2.918527,2.03554 -5.130953,2.03554 h -5.978446 z"
       style="font-style:normal;font-variant:normal;font-weight:normal;font-stretch:normal;font-size:medium;line-height:1.25;font-family:sans-serif;-inkscape-font-specification:sans-serif;letter-spacing:0px;word-spacing:0px;fill:#000000;fill-opacity:1;stroke:none;stroke-width:1.31164432" />
    <rect
       y="152.2"
       x="35.866146"
       height="1.1179578"
       width="104.51041"
       id="rect3817"
       style="fill:#ffffff;stroke-width:0.26131916" />
    <text
       xml:space="preserve"
       style="font-style:normal;font-variant:normal;font-weight:normal;font-stretch:normal;font-size:10.58333302px;line-height:1.25;font-family:'Mitra Mono';-inkscape-font-specification:'Mitra Mono';letter-spacing:0px;word-spacing:0px;fill:#000000;fill-opacity:1;stroke:none;stroke-width:0.26458332"
       x="59.159893"
       y="151.98094"
       id="text33"><tspan
         sodipodi:role="line"
         id="tspan31"
         x="59.159893"
         y="161.57208"
         style="stroke-width:0.26458332" /></text>
    <g
       aria-label="trace"
       transform="scale(0.90097242,1.1099119)"
       style="font-style:normal;font-weight:normal;font-size:38.15700912px;line-height:1.25;font-family:sans-serif;letter-spacing:-4.21406937px;word-spacing:0px;fill:#ffffff;fill-opacity:1;stroke:none;stroke-width:0.95392519"
       id="text3715-8">
      <path
         d="m 60.937114,108.18993 v 1.41181 H 50.90182 v 25.14547 H 49.528168 V 109.60174 H 39.492875 v -1.41181 z"
         style="font-style:normal;font-variant:normal;font-weight:normal;font-stretch:normal;font-family:'Major Mono Display';-inkscape-font-specification:'Major Mono Display';letter-spacing:-4.21406937px;fill:#ffffff;stroke-width:0.95392519"
         id="path4707" />
      <path
         d="m 80.007764,109.06754 q 2.28942,1.0684 3.586759,3.16703 1.335495,2.09864 1.335495,4.65516 0,2.97624 -1.831536,5.34198 -1.79338,2.32758 -4.616998,3.09072 l 6.75379,9.42478 h -1.678908 l -6.524849,-9.15768 -1.221024,0.0382 h -9.577409 v 9.11953 h -1.41181 v -26.55728 h 10.111608 q 1.678908,0 2.861775,0.22894 1.221025,0.19079 2.213107,0.64867 z m -3.815701,15.14833 q 1.984164,0 3.663073,-0.99208 1.678908,-0.99208 2.67099,-2.67099 0.992083,-1.67891 0.992083,-3.66307 0,-2.21311 -1.182868,-4.00649 -1.14471,-1.79338 -3.205188,-2.67099 -1.488124,-0.61051 -4.197271,-0.61051 h -8.699798 v 14.61413 z"
         style="font-style:normal;font-variant:normal;font-weight:normal;font-stretch:normal;font-family:'Major Mono Display';-inkscape-font-specification:'Major Mono Display';letter-spacing:-4.21406937px;fill:#ffffff;stroke-width:0.95392519"
         id="path4709" />
      <path
         d="m 97.552133,108.18993 h 1.488124 l 10.912903,26.55728 h -1.52628 l -3.58676,-8.77611 H 91.752268 l -3.624916,8.77611 h -1.488123 z m -5.22751,16.40751 h 11.943147 l -5.990653,-14.57597 z"
         style="font-style:normal;font-variant:normal;font-weight:normal;font-stretch:normal;font-family:'Major Mono Display';-inkscape-font-specification:'Major Mono Display';letter-spacing:-4.21406937px;fill:#ffffff;stroke-width:0.95392519"
         id="path4711" />
      <path
         d="m 113.18865,124.59744 q 0,2.51837 1.25919,4.65516 1.29733,2.13679 3.43413,3.39597 2.17495,1.25918 4.69331,1.25918 2.59468,0 4.69331,-1.03024 2.09864,-1.03024 3.2815,-2.86177 1.22103,-1.83154 1.25919,-4.12096 h 1.37365 q 0,2.63284 -1.41181,4.80778 -1.37365,2.1368 -3.8157,3.39598 -2.40389,1.22102 -5.38014,1.22102 -2.89993,0 -5.38014,-1.44996 -2.48021,-1.44997 -3.93017,-3.89202 -1.44997,-2.4802 -1.44997,-5.38014 v -6.25775 q 0,-2.89993 1.41181,-5.34198 1.44997,-2.4802 3.89202,-3.93017 2.4802,-1.44997 5.38013,-1.44997 2.93809,0 5.34199,1.25919 2.44204,1.22102 3.85385,3.39597 1.41181,2.13679 1.41181,4.76963 h -1.37365 q -0.0382,-2.28943 -1.25918,-4.12096 -1.22102,-1.83154 -3.31966,-2.86178 -2.06048,-1.03024 -4.65516,-1.03024 -2.51836,0 -4.65515,1.25918 -2.13679,1.25919 -3.39597,3.39598 -1.25919,2.13679 -1.25919,4.65515 z"
         style="font-style:normal;font-variant:normal;font-weight:normal;font-stretch:normal;font-family:'Major Mono Display';-inkscape-font-specification:'Major Mono Display';letter-spacing:-4.21406937px;fill:#ffffff;stroke-width:0.95392519"
         id="path4713" />
      <path
         d="m 137.18156,108.18993 h 18.69693 v 1.41181 h -17.28512 v 10.76028 h 15.03386 v 1.4118 h -15.03386 v 11.56158 h 17.28512 v 1.41181 h -18.69693 z"
         style="font-style:normal;font-variant:normal;font-weight:normal;font-stretch:normal;font-family:'Major Mono Display';-inkscape-font-specification:'Major Mono Display';letter-spacing:-4.21406937px;fill:#ffffff;stroke-width:0.95392519"
         id="path4715" />
    </g>
  </g>
  <g
     inkscape:groupmode="layer"
     id="layer2"
     inkscape:label="Layer 2"
     transform="translate(-0.33242465,-6.9198612)" />
</svg>
