<?xml version="1.0" ?><!DOCTYPE svg  PUBLIC '-//W3C//DTD SVG 1.1//EN'  'http://www.w3.org/Graphics/SVG/1.1/DTD/svg11.dtd'><svg enable-background="new 0 0 50 50" height="50px" id="Layer_1" version="1.1" viewBox="0 0 50 50" width="50px" xml:space="preserve" xmlns="http://www.w3.org/2000/svg" xmlns:xlink="http://www.w3.org/1999/xlink"><g><g><path d="M50,45.233C50,47.866,47.866,50,45.233,50H4.767C2.134,50,0,47.866,0,45.233V4.767     C0,2.134,2.134,0,4.767,0h40.466C47.866,0,50,2.134,50,4.767V45.233z" fill="#2899C0"/><path d="M50,35.644L33.982,19.625l-0.246-0.246l-3.079-3.074l-2.899-1.219l-4.545,0.584l-2.765,1.621l-5.434,6.006     l1.765,10.601L32.878,50h12.355C47.866,50,50,47.866,50,45.233V35.644z" opacity="0.2"/><g><g><path d="M34.092,22.088c-0.253-0.539-0.552-1.053-0.892-1.535c-0.114-0.033-0.234-0.051-0.358-0.051       c-0.683,0-1.242,0.533-1.283,1.206c0.274,0.388,0.515,0.801,0.718,1.235c0.483,1.032,0.753,2.183,0.753,3.397       c0,4.434-3.595,8.029-8.029,8.029s-8.029-3.595-8.029-8.029s3.595-8.029,8.029-8.029c0.726,0,1.429,0.097,2.097,0.277       c0.068-0.168,0.152-0.33,0.248-0.485c0.19-0.308,0.408-0.595,0.624-0.886c0.094-0.127,0.187-0.254,0.291-0.372       c-1.022-0.351-2.119-0.542-3.26-0.542c-5.543,0-10.036,4.493-10.036,10.036S19.457,36.377,25,36.377       s10.036-4.493,10.036-10.036C35.036,24.82,34.697,23.379,34.092,22.088z" fill="#FFFFFF"/><path d="M35.052,21.526c-0.191-0.403-0.406-0.791-0.645-1.167c-0.176-0.277-0.358-0.597-0.647-0.766       c-0.291-0.171-0.677-0.211-1.008-0.2c-1.064,0.036-2.003,0.812-2.245,1.848c-0.092,0.393-0.086,0.777,0.153,1.119       c0.126,0.18,0.24,0.368,0.351,0.558c0.111,0.191,0.21,0.388,0.305,0.588c0.002,0.005,0.145,0.336,0.064,0.14       c0.056,0.137,0.106,0.277,0.154,0.416c0.147,0.425,0.249,0.866,0.323,1.309c0.061,0.366-0.021-0.213,0.019,0.158       c0.012,0.115,0.02,0.23,0.027,0.346c0.016,0.245,0.016,0.49,0.009,0.735c-0.005,0.177-0.018,0.354-0.035,0.53       c-0.005,0.051-0.043,0.348-0.002,0.052c-0.012,0.086-0.027,0.172-0.041,0.258c-0.063,0.368-0.157,0.729-0.271,1.084       c-0.052,0.162-0.111,0.321-0.173,0.479c-0.105,0.269,0.097-0.218-0.02,0.046c-0.034,0.077-0.071,0.153-0.107,0.229       c-0.157,0.328-0.342,0.642-0.542,0.945c-0.092,0.139-0.191,0.274-0.291,0.408c0.171-0.226-0.002-0.002-0.034,0.036       c-0.053,0.064-0.108,0.127-0.163,0.19c-0.238,0.272-0.497,0.524-0.769,0.761c-0.063,0.055-0.127,0.108-0.192,0.161       c-0.22,0.18,0.189-0.14-0.038,0.031c-0.133,0.101-0.271,0.195-0.411,0.287c-0.304,0.201-0.623,0.375-0.951,0.533       c-0.076,0.037-0.153,0.071-0.23,0.105c0.263-0.116-0.001-0.002-0.047,0.016c-0.158,0.062-0.32,0.117-0.482,0.168       c-0.356,0.114-0.721,0.197-1.088,0.259c-0.051,0.009-0.345,0.047-0.05,0.01c-0.087,0.011-0.175,0.019-0.262,0.027       c-0.177,0.016-0.354,0.024-0.532,0.029c-0.385,0.011-0.771-0.012-1.153-0.056c0.295,0.034,0.001-0.002-0.05-0.01       c-0.086-0.014-0.171-0.03-0.256-0.047c-0.169-0.033-0.337-0.074-0.504-0.117c-0.165-0.043-0.329-0.095-0.491-0.148       c-0.081-0.027-0.161-0.056-0.24-0.085c-0.052-0.019-0.402-0.165-0.127-0.047c-0.309-0.133-0.608-0.29-0.898-0.46       c-0.144-0.085-0.284-0.176-0.423-0.27c-0.069-0.047-0.137-0.096-0.205-0.145c-0.045-0.033-0.09-0.066-0.134-0.1       c0.115,0.089,0.124,0.095,0.028,0.019c-0.26-0.209-0.503-0.438-0.735-0.677c-0.116-0.12-0.226-0.245-0.335-0.371       c-0.054-0.063-0.106-0.128-0.159-0.193c0.185,0.23-0.045-0.063-0.077-0.108c-0.196-0.272-0.371-0.558-0.531-0.852       c-0.081-0.148-0.154-0.299-0.226-0.452c-0.021-0.045-0.133-0.31-0.023-0.044c-0.043-0.104-0.083-0.21-0.122-0.316       c-0.118-0.321-0.21-0.652-0.286-0.986c-0.038-0.169-0.069-0.34-0.096-0.511c-0.047-0.294,0.028,0.246-0.006-0.051       c-0.013-0.117-0.022-0.234-0.031-0.352c-0.025-0.356-0.021-0.714,0-1.07c0.005-0.088,0.014-0.176,0.022-0.264       c0.005-0.051,0.043-0.348,0.002-0.052c0.028-0.201,0.066-0.4,0.109-0.598c0.048-0.224,0.11-0.444,0.177-0.663       c0.033-0.109,0.071-0.216,0.109-0.323c0.022-0.063,0.194-0.481,0.076-0.207c0.199-0.463,0.448-0.903,0.73-1.321       c0.062-0.092,0.128-0.182,0.194-0.272c0.074-0.098,0.067-0.089-0.021,0.027c0.035-0.044,0.07-0.087,0.105-0.129       c0.159-0.193,0.329-0.376,0.505-0.554c0.176-0.178,0.363-0.344,0.554-0.505c0.043-0.035,0.086-0.071,0.129-0.105       c-0.116,0.088-0.125,0.095-0.027,0.021c0.111-0.084,0.226-0.163,0.341-0.241c0.395-0.267,0.816-0.491,1.251-0.684       c-0.274,0.121,0.074-0.027,0.127-0.047c0.133-0.05,0.267-0.095,0.402-0.138c0.245-0.079,0.496-0.141,0.747-0.195       c0.113-0.024,0.227-0.045,0.341-0.064c0.057-0.009,0.115-0.018,0.172-0.027c-0.151,0.02-0.163,0.022-0.035,0.007       c0.264-0.031,0.531-0.044,0.797-0.048c0.349-0.006,0.697,0.017,1.043,0.056c-0.101-0.014-0.083-0.011,0.054,0.01       c0.077,0.013,0.154,0.026,0.23,0.041c0.19,0.035,0.378,0.082,0.565,0.131c0.436,0.115,1.062-0.057,1.256-0.511       c0.12-0.281,0.275-0.535,0.446-0.787c0.09-0.133,0.186-0.261,0.282-0.39c0.129-0.175,0.187-0.253,0.261-0.34       c0.55-0.653,0.342-1.578-0.491-1.859c-3.194-1.077-6.811-0.622-9.632,1.22c-2.525,1.649-4.34,4.321-4.878,7.294       c-0.551,3.047,0.156,6.271,2.046,8.741c1.92,2.509,4.708,4.059,7.845,4.404c3.079,0.338,6.181-0.757,8.492-2.782       c2.302-2.017,3.624-5,3.717-8.042C36.199,24.849,35.788,23.119,35.052,21.526c-0.254-0.55-1.037-0.683-1.522-0.399       c-0.56,0.328-0.653,0.971-0.399,1.522c0.046,0.1,0.091,0.2,0.135,0.301c-0.086-0.197,0.051,0.138,0.053,0.143       c0.079,0.207,0.149,0.418,0.214,0.629c0.144,0.465,0.246,0.942,0.32,1.423c-0.034-0.22,0.017,0.15,0.017,0.157       c0.012,0.114,0.021,0.229,0.029,0.343c0.017,0.232,0.022,0.464,0.024,0.696c0.002,0.385-0.023,0.769-0.065,1.152       c-0.033,0.297,0.037-0.243-0.006,0.051c-0.013,0.086-0.027,0.172-0.042,0.258c-0.029,0.171-0.065,0.34-0.103,0.509       c-0.082,0.362-0.188,0.718-0.31,1.068c-0.056,0.16-0.117,0.318-0.181,0.476c0.108-0.266-0.001-0.001-0.022,0.045       c-0.034,0.077-0.071,0.153-0.107,0.229c-0.156,0.329-0.335,0.646-0.526,0.956c-0.088,0.142-0.181,0.281-0.276,0.419       c-0.047,0.069-0.097,0.136-0.146,0.204c-0.029,0.04-0.202,0.265-0.028,0.041c-0.222,0.285-0.462,0.555-0.714,0.815       c-0.232,0.24-0.478,0.465-0.732,0.68c-0.064,0.054-0.129,0.106-0.193,0.159c-0.222,0.178,0.188-0.141-0.039,0.03       c-0.156,0.117-0.316,0.228-0.479,0.336c-0.279,0.186-0.57,0.354-0.866,0.511c-0.149,0.079-0.301,0.152-0.453,0.223       c-0.077,0.036-0.154,0.069-0.231,0.103c0.275-0.12-0.075,0.027-0.127,0.047c-0.668,0.258-1.366,0.434-2.074,0.543       c-0.294,0.045,0.245-0.029-0.051,0.006c-0.087,0.01-0.175,0.018-0.263,0.027c-0.177,0.016-0.354,0.026-0.531,0.033       c-0.386,0.015-0.774,0.004-1.159-0.025c-0.088-0.007-0.176-0.015-0.263-0.024c-0.051-0.005-0.348-0.043-0.052-0.003       c-0.172-0.024-0.344-0.054-0.515-0.086c-0.366-0.07-0.727-0.164-1.083-0.274c-0.163-0.05-0.323-0.107-0.483-0.165       c-0.08-0.029-0.158-0.06-0.237-0.092c-0.268-0.106,0.218,0.096-0.046-0.019c-0.334-0.146-0.659-0.314-0.975-0.495       c-0.29-0.166-0.57-0.351-0.843-0.545c-0.068-0.049-0.135-0.099-0.201-0.149c0.227,0.171,0.001-0.001-0.037-0.032       c-0.151-0.122-0.298-0.25-0.442-0.381c-0.247-0.224-0.48-0.463-0.704-0.71c-0.112-0.124-0.219-0.251-0.325-0.38       c-0.031-0.038-0.205-0.263-0.032-0.037c-0.068-0.088-0.133-0.179-0.197-0.269c-0.407-0.57-0.746-1.186-1.025-1.827       c0.115,0.264,0.002-0.001-0.016-0.047c-0.031-0.079-0.06-0.159-0.09-0.238c-0.059-0.16-0.111-0.322-0.161-0.485       c-0.11-0.356-0.196-0.72-0.265-1.086c-0.016-0.085-0.03-0.171-0.044-0.257c-0.008-0.051-0.047-0.345-0.009-0.05       c-0.022-0.175-0.038-0.35-0.051-0.526c-0.029-0.386-0.03-0.773-0.015-1.16c0.007-0.177,0.021-0.354,0.037-0.53       c0.008-0.087,0.018-0.175,0.029-0.262c-0.035,0.295,0.001,0.001,0.009-0.05c0.057-0.37,0.14-0.736,0.238-1.097       c0.089-0.329,0.2-0.652,0.323-0.97c0.018-0.046,0.129-0.312,0.016-0.047c0.033-0.078,0.068-0.155,0.103-0.231       c0.081-0.179,0.17-0.354,0.262-0.528c0.157-0.296,0.332-0.583,0.518-0.862c0.093-0.139,0.19-0.275,0.29-0.409       c0.169-0.229-0.147,0.184,0.03-0.039c0.069-0.087,0.141-0.172,0.212-0.257c0.215-0.254,0.446-0.495,0.686-0.727       c0.12-0.116,0.244-0.227,0.369-0.337c0.063-0.055,0.127-0.108,0.191-0.162c0.042-0.035,0.336-0.265,0.102-0.085       c0.555-0.425,1.158-0.784,1.788-1.084c0.076-0.036,0.153-0.071,0.23-0.105c0.263-0.117-0.221,0.089,0.046-0.019       c0.157-0.064,0.317-0.122,0.478-0.177c0.351-0.122,0.71-0.219,1.072-0.301c0.169-0.038,0.339-0.07,0.51-0.099       c0.086-0.015,0.172-0.027,0.258-0.04c-0.295,0.043,0.001,0.003,0.052-0.003c0.393-0.043,0.788-0.057,1.182-0.055       c0.987,0.006,1.643,0.122,2.634,0.431c0.071,0.023,0.142,0.046,0.213,0.07c-0.164-0.62-0.327-1.239-0.491-1.859       c-0.497,0.59-1.031,1.253-1.336,1.968c0.419-0.17,0.837-0.341,1.256-0.511c-3.26-0.855-6.786,0.127-9.088,2.601       c-2.17,2.332-2.96,5.704-2.089,8.763c0.852,2.994,3.273,5.363,6.244,6.244c3.065,0.908,6.421,0.046,8.763-2.089       c3.298-3.005,3.841-8.238,1.295-11.889c0.051,0.187,0.101,0.374,0.152,0.561c-0.025,0.151-0.024,0.165,0.002,0.04       c0.062-0.266-0.111,0.194,0.017-0.043c0.067-0.102,0.058-0.095-0.029,0.023c0.039-0.048,0.243-0.205,0.022-0.045       c0.046-0.031,0.094-0.059,0.143-0.084c-0.23,0.125-0.022,0.019,0.052,0.001c-0.153,0.016-0.165,0.021-0.036,0.013       c0.29-0.01-0.211-0.058,0.063,0.011c-0.222-0.17-0.443-0.341-0.665-0.511c0.34,0.487,0.637,0.998,0.892,1.535       c0.26,0.547,1.033,0.686,1.522,0.399C35.209,22.723,35.313,22.074,35.052,21.526z" fill="#FFFFFF"/></g><g><path d="M29.89,17.113l-5.498-3.289c-0.962-0.616-1.405,0.173-1.405,0.173v3.6v3.6c0,0,0.444,0.789,1.405,0.173       l5.498-3.289c0,0,0.203-0.122,0.203-0.483C30.094,17.235,29.89,17.113,29.89,17.113z" fill="#FFFFFF"/><path d="M30.452,16.152c-1.336-0.799-2.672-1.599-4.008-2.398c-0.496-0.297-0.992-0.593-1.487-0.89       c-0.841-0.503-1.767-0.513-2.538,0.107c-0.365,0.293-0.544,0.699-0.544,1.163c0,1.404,0,2.809,0,4.213c0,0.904,0,1.807,0,2.711       c0,0.464,0.178,0.869,0.544,1.163c0.771,0.62,1.698,0.609,2.538,0.107c1.183-0.708,2.366-1.416,3.55-2.124       c0.585-0.35,1.17-0.7,1.755-1.05c0.174-0.104,0.347-0.202,0.488-0.354C31.455,18.033,31.321,16.73,30.452,16.152       c-0.506-0.336-1.229-0.101-1.522,0.399c-0.32,0.546-0.105,1.187,0.399,1.522c0.071,0.047,0.01,0.001-0.181-0.138       c-0.039-0.052-0.077-0.103-0.116-0.155c0.053,0.093,0.042,0.067-0.032-0.078c-0.042-0.138,0.007-0.219,0.062-0.343       c-0.01,0.017-0.02,0.034-0.03,0.051c0.073-0.127,0.174-0.226,0.303-0.297c-0.027,0.02-0.059,0.036-0.088,0.053       c-0.219,0.131-0.439,0.262-0.658,0.394c-0.778,0.465-1.556,0.931-2.334,1.396c-0.695,0.416-1.39,0.831-2.085,1.247       c-0.113,0.068-0.226,0.135-0.34,0.203c-0.034,0.021-0.342,0.159-0.091,0.065c-0.086,0.033-0.321,0.041-0.007,0.018       c-0.238,0.017,0.259,0.062,0.046,0.01c-0.209-0.05,0.243,0.125,0.068,0.026c-0.172-0.097,0.215,0.185,0.078,0.063       c-0.028-0.025-0.053-0.053-0.077-0.081c0.262,0.297,0.15,0.209,0.1,0.124c0.051,0.187,0.101,0.374,0.152,0.561       c0-2.4,0-4.8,0-7.199c-0.051,0.187-0.101,0.374-0.152,0.561c0.011-0.019,0.024-0.037,0.037-0.056       c-0.231,0.32-0.159,0.2-0.089,0.127c0.061-0.064,0.197-0.146-0.091,0.062c0.213-0.154-0.252,0.054,0.031-0.014       c-0.057,0.008-0.114,0.016-0.171,0.025c0.118,0.003,0.09-0.005-0.083-0.024c0.053,0.008,0.286,0.102,0.064,0.001       c0.153,0.069,0.302,0.175,0.446,0.261c0.614,0.368,1.229,0.735,1.843,1.103c1.132,0.677,2.263,1.354,3.395,2.031       c0.521,0.311,1.218,0.12,1.522-0.399C31.159,17.147,30.971,16.463,30.452,16.152z" fill="#FFFFFF"/></g></g></g></g></svg>