<?xml version="1.0" ?><!DOCTYPE svg  PUBLIC '-//W3C//DTD SVG 1.1//EN'  'http://www.w3.org/Graphics/SVG/1.1/DTD/svg11.dtd'><svg enable-background="new 0 0 50 50" height="50px" id="Layer_1" version="1.1" viewBox="0 0 50 50" width="50px" xml:space="preserve" xmlns="http://www.w3.org/2000/svg" xmlns:xlink="http://www.w3.org/1999/xlink"><g><g><path d="M50,45.233C50,47.866,47.866,50,45.233,50H4.767C2.134,50,0,47.866,0,45.233V4.767     C0,2.134,2.134,0,4.767,0h40.466C47.866,0,50,2.134,50,4.767V45.233z" fill="#2899C0"/><path d="M50,28.948l-12.801-12.8l-18.343,1.913L16.9,16.129l-4.054,4.403l1.794,1.821l-1.794,4.864l1.794,1.811     l-1.652,4.996L28.959,50h16.274C47.866,50,50,47.866,50,45.233V28.948z" opacity="0.2"/><g><g><path d="M15.982,15.682v-0.004H15.9h-1.659h-0.406c-0.737,0-1.335,0.598-1.335,1.335v2.623       c0,0.737,0.598,1.335,1.335,1.335h0.406H15.9h0.082v-0.004c0.699-0.042,1.254-0.621,1.254-1.331v-2.623       C17.235,16.303,16.681,15.725,15.982,15.682z" fill="#FFFFFF"/><path d="M36.182,15.678H22.338h-2.146h-0.128v0.006c-0.678,0.064-1.208,0.634-1.208,1.329v2.623       c0,0.694,0.53,1.265,1.208,1.329v0.006h0.128h2.146h13.845c0.737,0,1.335-0.598,1.335-1.335v-2.623       C37.518,16.276,36.92,15.678,36.182,15.678z" fill="#FFFFFF"/></g><g><path d="M15.973,22.358v-0.004h-0.082h-1.659h-0.406c-0.737,0-1.335,0.598-1.335,1.335v2.623       c0,0.737,0.598,1.335,1.335,1.335h0.406h1.659h0.082v-0.004c0.699-0.042,1.254-0.621,1.254-1.331v-2.623       C17.226,22.979,16.672,22.4,15.973,22.358z" fill="#FFFFFF"/><path d="M36.174,22.353H22.329h-2.146h-0.128v0.006c-0.678,0.064-1.208,0.634-1.208,1.329v2.623       c0,0.694,0.53,1.265,1.208,1.329v0.006h0.128h2.146h13.845c0.737,0,1.335-0.598,1.335-1.335v-2.623       C37.509,22.951,36.911,22.353,36.174,22.353z" fill="#FFFFFF"/></g><g><path d="M15.973,29.033v-0.004h-0.082h-1.659h-0.406c-0.737,0-1.335,0.598-1.335,1.335v2.623       c0,0.737,0.598,1.335,1.335,1.335h0.406h1.659h0.082v-0.004c0.699-0.042,1.254-0.621,1.254-1.331v-2.623       C17.226,29.654,16.672,29.075,15.973,29.033z" fill="#FFFFFF"/><path d="M36.174,29.029H22.329h-2.146h-0.128v0.006c-0.678,0.064-1.208,0.634-1.208,1.329v2.623       c0,0.694,0.53,1.265,1.208,1.329v0.006h0.128h2.146h13.845c0.737,0,1.335-0.598,1.335-1.335v-2.623       C37.509,29.627,36.911,29.029,36.174,29.029z" fill="#FFFFFF"/></g></g></g></g></svg>