<?xml version="1.0" ?><!DOCTYPE svg  PUBLIC '-//W3C//DTD SVG 1.1//EN'  'http://www.w3.org/Graphics/SVG/1.1/DTD/svg11.dtd'><svg enable-background="new 0 0 50 50" height="50px" id="Layer_1" version="1.1" viewBox="0 0 50 50" width="50px" xml:space="preserve" xmlns="http://www.w3.org/2000/svg" xmlns:xlink="http://www.w3.org/1999/xlink"><g><g><path d="M50,45.233C50,47.866,47.866,50,45.233,50H4.767C2.134,50,0,47.866,0,45.233V4.767     C0,2.134,2.134,0,4.767,0h40.466C47.866,0,50,2.134,50,4.767V45.233z" fill="#2899C0"/><path d="M50,45.233v-9.224L36.332,22.294l-6.268,2.494l-2.373-2.353l-6.409,2.375l-2.514-2.515l-5.288,5.22     L35.961,50h9.272C47.866,50,50,47.866,50,45.233z" opacity="0.2"/><g><circle cx="16.218" cy="25" fill="#FFFFFF" r="3.718"/><circle cx="25" cy="25" fill="#FFFFFF" r="3.718"/><circle cx="33.782" cy="25" fill="#FFFFFF" r="3.718"/></g></g></g></svg>