<?xml version="1.0" ?><!DOCTYPE svg  PUBLIC '-//W3C//DTD SVG 1.1//EN'  'http://www.w3.org/Graphics/SVG/1.1/DTD/svg11.dtd'><svg enable-background="new 0 0 50 50" height="50px" id="Layer_1" version="1.1" viewBox="0 0 50 50" width="50px" xml:space="preserve" xmlns="http://www.w3.org/2000/svg" xmlns:xlink="http://www.w3.org/1999/xlink"><g><g><path d="M50,45.233C50,47.866,47.866,50,45.233,50H4.767C2.134,50,0,47.866,0,45.233V4.767     C0,2.134,2.134,0,4.767,0h40.466C47.866,0,50,2.134,50,4.767V45.233z" fill="#2899C0"/><path d="M33.103,12.897l-4.924,6.764l-6.781-6.819l-4.563,24.192L29.807,50h15.426C47.866,50,50,47.866,50,45.233     V29.796L33.103,12.897z" opacity="0.2"/><g><path d="M21.821,36.182c0,0.737-0.598,1.335-1.335,1.335h-2.623c-0.737,0-1.335-0.598-1.335-1.335V13.818      c0-0.737,0.598-1.335,1.335-1.335h2.623c0.737,0,1.335,0.598,1.335,1.335V36.182z" fill="#FFFFFF"/><path d="M33.472,36.182c0,0.737-0.598,1.335-1.335,1.335h-2.623c-0.737,0-1.335-0.598-1.335-1.335V13.818      c0-0.737,0.598-1.335,1.335-1.335h2.623c0.737,0,1.335,0.598,1.335,1.335V36.182z" fill="#FFFFFF"/></g></g></g></svg>