<?xml version="1.0" ?><!DOCTYPE svg  PUBLIC '-//W3C//DTD SVG 1.1//EN'  'http://www.w3.org/Graphics/SVG/1.1/DTD/svg11.dtd'><svg enable-background="new 0 0 50 50" height="50px" id="Layer_1" version="1.1" viewBox="0 0 50 50" width="50px" xml:space="preserve" xmlns="http://www.w3.org/2000/svg" xmlns:xlink="http://www.w3.org/1999/xlink"><g><g><path d="M50,45.233C50,47.866,47.866,50,45.233,50H4.767C2.134,50,0,47.866,0,45.233V4.767     C0,2.134,2.134,0,4.767,0h40.466C47.866,0,50,2.134,50,4.767V45.233z" fill="#2899C0"/><path d="M35.618,23.619l-21.37,13.078L27.552,50h17.681C47.866,50,50,47.866,50,45.233v-7.195L35.618,23.619z" opacity="0.2"/><path d="M35.466,23.491L18.289,13.214c-3.004-1.926-4.391,0.539-4.391,0.539V25v11.246     c0,0,1.387,2.465,4.391,0.539l17.178-10.277c0,0,0.635-0.382,0.635-1.509S35.466,23.491,35.466,23.491z" fill="#FFFFFF"/></g></g></svg>