<?xml version="1.0" ?><!DOCTYPE svg  PUBLIC '-//W3C//DTD SVG 1.1//EN'  'http://www.w3.org/Graphics/SVG/1.1/DTD/svg11.dtd'><svg enable-background="new 0 0 50 50" height="50px" id="Layer_1" version="1.1" viewBox="0 0 50 50" width="50px" xml:space="preserve" xmlns="http://www.w3.org/2000/svg" xmlns:xlink="http://www.w3.org/1999/xlink"><g><g><path d="M50,45.233C50,47.866,47.866,50,45.233,50H4.767C2.134,50,0,47.866,0,45.233V4.767     C0,2.134,2.134,0,4.767,0h40.466C47.866,0,50,2.134,50,4.767V45.233z" fill="#2899C0"/><path d="M50,45.233V32.47L33.458,15.912l-3.818,0.412l-1.997-2.029l-1.328-1.331l-6.59,2.983l-0.784-0.164     l-0.76-0.763l-0.223,0.302l-1.3,5.514l-3.945,3.831l1.292,1.286l1.95,1.939l-1.119,4.623L32.287,50h12.946     C47.866,50,50,47.866,50,45.233z" opacity="0.2"/><g><g><path d="M25,14.525c-5.785,0-10.475,4.69-10.475,10.475S19.215,35.475,25,35.475S35.475,30.785,35.475,25       S30.785,14.525,25,14.525z M25,32.332c-4.05,0-7.332-3.283-7.332-7.332S20.95,17.668,25,17.668S32.332,20.95,32.332,25       S29.05,32.332,25,32.332z" fill="#FFFFFF"/><path d="M25,36.015c-6.074,0-11.015-4.941-11.015-11.015S18.926,13.985,25,13.985S36.015,18.926,36.015,25       S31.074,36.015,25,36.015z M25,15.065c-5.478,0-9.935,4.457-9.935,9.935s4.457,9.935,9.935,9.935s9.935-4.457,9.935-9.935       S30.478,15.065,25,15.065z M25,32.873c-4.341,0-7.873-3.532-7.873-7.873s3.532-7.873,7.873-7.873s7.873,3.532,7.873,7.873       S29.341,32.873,25,32.873z M25,18.208c-3.745,0-6.792,3.047-6.792,6.792s3.047,6.792,6.792,6.792s6.792-3.047,6.792-6.792       S28.745,18.208,25,18.208z" fill="#FFFFFF"/></g><g><path d="M24.894,12.639c-1.328,0-1.452,0.373-1.452,0.373v2.78h1.452h1.452v-2.78       C26.346,13.013,26.222,12.639,24.894,12.639z" fill="#FFFFFF"/><path d="M18.181,15.021c0,0-0.335-0.206-1.352,0.647c-1.017,0.853-0.872,1.219-0.872,1.219l1.787,2.129       l1.112-0.933l1.112-0.933L18.181,15.021z" fill="#FFFFFF"/><path d="M15.702,23.721l0.252-1.43l-2.737-0.483c0,0-0.389,0.058-0.62,1.365       c-0.231,1.307,0.116,1.495,0.116,1.495l2.737,0.483L15.702,23.721z" fill="#FFFFFF"/><path d="M16.184,28.808l-2.407,1.39c0,0-0.261,0.294,0.403,1.444c0.664,1.15,1.049,1.071,1.049,1.071       l2.407-1.39l-0.726-1.257L16.184,28.808z" fill="#FFFFFF"/><path d="M20.549,33.653l-0.951,2.612c0,0-0.011,0.393,1.237,0.847c1.247,0.454,1.492,0.146,1.492,0.146       l0.951-2.612l-1.364-0.497L20.549,33.653z" fill="#FFFFFF"/><path d="M28.372,34.062l-1.364,0.497l0.951,2.612c0,0,0.245,0.308,1.492-0.146       c1.247-0.454,1.237-0.847,1.237-0.847l-0.951-2.612L28.372,34.062z" fill="#FFFFFF"/><path d="M33.989,28.586l-0.726,1.257l-0.726,1.257l2.407,1.39c0,0,0.386,0.079,1.049-1.071       c0.664-1.15,0.403-1.444,0.403-1.444L33.989,28.586z" fill="#FFFFFF"/><path d="M37.403,22.921c-0.231-1.307-0.62-1.365-0.62-1.365l-2.737,0.483l0.252,1.43l0.252,1.43l2.737-0.483       C37.287,24.415,37.634,24.228,37.403,22.921z" fill="#FFFFFF"/><path d="M33.02,15.504c-1.017-0.853-1.352-0.647-1.352-0.647l-1.787,2.129l1.112,0.933l1.112,0.933l1.787-2.129       C33.892,16.723,34.036,16.357,33.02,15.504z" fill="#FFFFFF"/></g></g></g></g></svg>