<?xml version="1.0" ?><!DOCTYPE svg  PUBLIC '-//W3C//DTD SVG 1.1//EN'  'http://www.w3.org/Graphics/SVG/1.1/DTD/svg11.dtd'><svg enable-background="new 0 0 50 50" height="50px" id="Layer_1" version="1.1" viewBox="0 0 50 50" width="50px" xml:space="preserve" xmlns="http://www.w3.org/2000/svg" xmlns:xlink="http://www.w3.org/1999/xlink"><g><g><path d="M50,45.233C50,47.866,47.866,50,45.233,50H4.767C2.134,50,0,47.866,0,45.233V4.767     C0,2.134,2.134,0,4.767,0h40.466C47.866,0,50,2.134,50,4.767V45.233z" fill="#2899C0"/><path d="M36.867,12.913L12.942,36.839L26.105,50h19.128C47.866,50,50,47.866,50,45.233V26.046L36.867,12.913z" opacity="0.2"/><g><g><path d="M37.493,35.655c0,1-0.81,1.81-1.81,1.81H14.31c-1,0-1.81-0.81-1.81-1.81V14.282       c0-1,0.81-1.81,1.81-1.81h21.373c1,0,1.81,0.81,1.81,1.81V35.655z" fill="#FFFFFF"/></g></g></g></g></svg>