<?xml version="1.0" standalone="no"?>
<!DOCTYPE svg PUBLIC "-//W3C//DTD SVG 20010904//EN"
 "http://www.w3.org/TR/2001/REC-SVG-20010904/DTD/svg10.dtd">
<svg version="1.0" xmlns="http://www.w3.org/2000/svg"
 width="700.000000pt" height="700.000000pt" viewBox="0 0 700.000000 700.000000"
 preserveAspectRatio="xMidYMid meet">
<metadata>
Created by potrace 1.11, written by Peter Selinger 2001-2013
</metadata>
<g transform="translate(0.000000,700.000000) scale(0.100000,-0.100000)"
fill="#000000" stroke="none">
<path d="M1760 3501 l0 -2821 405 0 405 0 0 720 0 720 605 0 c486 0 633 3 743
16 367 42 663 141 912 305 123 81 322 279 408 406 87 129 166 291 214 441 22
70 43 133 47 141 4 8 146 94 316 193 171 98 311 182 312 186 1 4 -118 76 -266
161 l-268 154 -6 191 c-11 301 -39 507 -102 731 -182 649 -631 1071 -1287
1210 -276 59 -255 58 -1390 62 l-1048 4 0 -2820z m2178 1990 c147 -43 263
-113 368 -223 103 -108 155 -198 201 -345 l28 -88 3 -727 3 -726 -64 -84
c-136 -178 -327 -299 -566 -358 -132 -33 -278 -41 -661 -38 l-365 3 0 955 c0
1061 -4 997 68 1165 104 244 332 429 598 485 77 16 304 5 387 -19z"/>
<path d="M3625 5136 c-162 -51 -272 -189 -283 -351 -14 -228 160 -416 387
-416 178 0 315 100 377 275 22 62 19 181 -6 249 -70 188 -292 301 -475 243z"/>
</g>
</svg>
